<svg width="48" height="48" viewBox="0 0 48 48" fill="none" xmlns="http://www.w3.org/2000/svg">
<g clip-path="url(#clip0_2085_1783)">
<path d="M15.0571 7.3674C15.1977 7.3149 15.3734 7.4199 15.4261 7.12241C15.4436 6.98241 15.7423 6.87741 15.8653 6.66741C16.041 6.38742 16.5329 6.38742 16.5505 5.94992C16.8843 6.00242 16.8316 5.52993 17.1303 5.52993C17.3411 5.52993 17.1655 5.03993 17.5344 5.17993C17.4817 4.84744 17.9736 4.89994 17.9736 4.60244C17.9736 4.47994 18.0791 4.49744 18.1669 4.49744C18.2372 4.49744 18.3075 4.47994 18.3777 4.46244C18.2548 4.09495 18.7643 4.11245 18.7818 3.81495C18.7818 3.62246 19.0102 3.76245 19.0981 3.67495C19.3616 3.70995 19.4671 3.58745 19.4495 3.32496C19.713 3.35996 19.836 3.23746 19.8009 2.97496C20.1347 3.00996 20.2753 2.86996 20.2401 2.53747C20.5037 2.57247 20.6266 2.46747 20.5915 2.18747C20.855 2.22247 20.978 2.11747 20.9429 1.83748C21.224 1.87248 21.3294 1.76748 21.2943 1.48748C21.5403 1.48748 21.8038 1.52248 21.7335 1.13748C22.1201 1.20748 22.0849 0.944988 22.0849 0.699991C22.3485 0.73499 22.489 0.629992 22.4363 0.349995C22.5417 0.332496 22.6471 0.332499 22.7701 0.314999C23.0337 0.367498 23.1391 0.244997 23.1391 0C23.631 0 24.123 0 24.6325 0C24.6325 0.244997 24.7379 0.367498 25.0015 0.314999C25.142 0.332499 25.2826 0.332496 25.4231 0.349995C25.3704 0.629992 25.511 0.73499 25.7745 0.699991C25.7745 0.944988 25.7394 1.20748 26.1259 1.13748C26.0908 1.41748 26.1962 1.52248 26.4773 1.48748C26.407 1.87248 26.6706 1.83748 26.9165 1.83748C26.8814 2.09997 27.0044 2.22247 27.2679 2.18747C27.2328 2.44997 27.3558 2.57247 27.6193 2.53747C27.6193 2.76496 27.6018 3.02746 27.9707 2.97496C27.9531 3.23746 28.0586 3.34246 28.3221 3.32496C28.287 3.67495 28.5329 3.65745 28.7613 3.67495C28.8668 3.74495 29.0249 3.63995 29.1127 3.88495C29.2006 4.12995 29.552 4.25245 29.675 4.49744C29.798 4.74244 30.0966 4.77744 30.1669 5.03994C30.1845 5.07494 30.1845 5.10993 30.202 5.16243C30.5886 5.02243 30.5534 5.61743 30.8873 5.54743C30.8521 5.87992 31.4143 5.84492 31.3089 6.21242C31.6076 6.22992 31.6252 6.57992 31.9063 6.68491C32.1171 6.75491 32.2753 7.01741 32.4685 7.17491C32.6969 7.3674 32.8023 7.6999 33.1537 7.7349C33.1537 7.9799 33.1186 8.24239 33.5051 8.17239C33.4348 8.55739 33.6984 8.52239 33.9444 8.52239C33.9092 8.80239 34.0146 8.90738 34.2958 8.87239C34.2606 9.13488 34.3836 9.25738 34.6471 9.22238C34.6471 9.46738 34.612 9.72987 34.9985 9.65987C34.9634 9.92237 35.0864 10.0449 35.3499 10.0099C35.2972 10.3774 35.5432 10.3599 35.7892 10.3599C35.754 10.6224 35.877 10.7274 36.1406 10.7099C36.123 10.9724 36.2284 11.0774 36.4919 11.0599C36.5095 11.2873 36.4919 11.5323 36.8433 11.4973C37.2474 11.4973 37.4407 11.8298 37.5988 12.0748C37.7043 12.2498 38.1435 12.1273 37.9854 12.4948C38.3368 12.4248 38.2489 12.9498 38.5827 12.9148C38.6881 12.8973 38.6881 13.0023 38.6881 13.0723C38.653 13.3173 38.776 13.3348 38.9868 13.3698C39.1977 13.4048 39.2504 13.6673 39.4612 13.8073C39.6896 13.9473 39.8126 14.3148 40.1288 14.4198C40.164 14.4373 40.164 14.5248 40.1991 14.5598C40.3573 14.8923 40.5505 15.1723 40.9722 15.2073C40.9195 15.4873 41.0425 15.5923 41.3236 15.5573C41.2709 15.8373 41.3938 15.9423 41.675 15.9073C41.6398 16.1873 41.7628 16.2923 42.0264 16.2573C41.9736 16.6073 42.1142 16.7473 42.4656 16.6948C42.4305 16.9748 42.5534 17.0798 42.817 17.0448C42.7818 17.3073 42.9048 17.4298 43.1684 17.3948C43.1332 17.6573 43.2562 17.7798 43.5198 17.7448C43.5022 18.0073 43.6076 18.1123 43.8712 18.0948C43.836 18.4273 43.9766 18.5673 44.3104 18.5323C44.451 18.5848 44.6794 18.4973 44.6442 18.7948C44.6267 18.9872 45.1186 18.8472 44.9956 19.1972C45.347 19.1272 45.2767 19.6522 45.593 19.6172C45.6633 19.6172 45.6984 19.6697 45.6808 19.7222C45.6281 20.0197 45.8565 19.9672 46.0146 20.0722C46.1728 20.1772 46.3485 20.3522 46.489 20.5097C46.6647 20.7197 46.9458 20.8597 47.0512 21.0872C47.2094 21.4022 47.7892 21.3497 47.6662 21.8572C47.631 22.1022 47.7013 22.2597 48 22.2247C48 22.7147 48 23.2047 48 23.6947C47.754 23.6947 47.631 23.7997 47.6838 24.0622C47.6662 24.1672 47.6662 24.2722 47.6486 24.3947C47.4026 24.3947 47.1391 24.3597 47.2094 24.7447C47.0512 24.7797 46.8053 24.6922 46.858 25.0072C46.8931 25.1822 46.7526 25.1647 46.6472 25.1822C46.489 25.1822 46.3309 25.1997 46.1728 25.1997C45.0308 25.1997 43.8712 25.1997 42.7291 25.1822C42.4305 25.1822 42.448 25.3397 42.4832 25.5322C42.4832 25.7947 42.4656 26.0572 42.4656 26.3197C42.4656 32.9171 42.4656 39.532 42.448 46.1294C42.1142 46.0594 41.9912 46.1819 42.0615 46.5144C42.0615 46.6194 42.0439 46.7419 42.0439 46.8469C41.7804 46.8119 41.675 46.9519 41.7101 47.1969C41.3411 47.1444 41.3587 47.3894 41.3587 47.6344C41.1127 47.5994 40.9195 47.6344 40.9898 47.9669C36.4392 48.0194 31.8887 48.0019 27.3382 47.9669C27.3909 47.6694 27.2328 47.5994 26.9868 47.6344C27.022 47.3194 26.9692 47.0919 26.5652 47.1794C26.5652 44.1869 26.5476 41.212 26.5476 38.2195C26.5476 36.732 26.53 35.2445 26.5476 33.7571C26.5476 33.3546 26.4949 33.1971 26.0205 33.1971C24.6501 33.2321 23.2797 33.2321 21.8917 33.1971C21.4173 33.1796 21.3646 33.3546 21.3646 33.7571C21.3821 37.0645 21.3821 40.372 21.3646 43.6794C21.3646 44.8519 21.347 46.0069 21.347 47.1794C20.9253 47.0919 21.0307 47.4069 21.0132 47.6344C20.7496 47.5994 20.6091 47.6869 20.6618 47.9669C18.7291 47.9669 16.8141 47.9844 14.8814 47.9844C12.2635 47.9844 9.62811 47.9669 7.01025 47.9669C7.08053 47.6344 6.88727 47.6169 6.64129 47.6344C6.62372 47.4069 6.64129 47.1444 6.2899 47.1969C6.36018 46.8294 6.09663 46.8469 5.86823 46.8294C5.86823 46.7244 5.85066 46.6019 5.85066 46.4969C5.86823 46.2694 5.90337 46.0419 5.53441 46.1119C5.53441 39.4095 5.53441 32.6896 5.53441 25.9872C5.53441 25.8297 5.51684 25.6722 5.51684 25.5147C5.55198 25.3047 5.56955 25.1647 5.27086 25.1647C4.12884 25.1822 2.96925 25.1822 1.82723 25.1822C1.65154 25.1647 1.49341 25.1647 1.31772 25.1472C1.24744 25.1472 1.14202 25.1472 1.15959 25.0597C1.22987 24.6572 0.913616 24.7447 0.702782 24.7097C0.737921 24.4472 0.632504 24.3072 0.351391 24.3597C0.333821 24.2547 0.333825 24.1497 0.316255 24.0272C0.351394 23.7822 0.228404 23.6597 0 23.6597C0 23.1697 0 22.6797 0 22.1897C0.281113 22.2247 0.368959 22.0672 0.33382 21.8222C0.35139 21.5072 0.667645 21.1922 1.00147 21.0172C1.17716 20.9297 1.30015 20.7197 1.45828 20.5622C1.66911 20.3697 1.82723 20.0897 2.10835 19.9847C2.14348 19.9672 2.16105 19.9322 2.17862 19.8972C2.30161 19.6347 2.58272 19.4422 2.8814 19.1797C3.02196 19.0572 3.28551 18.8648 3.30308 18.7423C3.33822 18.4623 3.53148 18.5323 3.65447 18.4798C4.00586 18.5323 3.98829 18.2873 4.00586 18.0423C4.2694 18.0773 4.37482 17.9548 4.35725 17.6923C4.58565 17.6923 4.8492 17.7098 4.79649 17.3423C5.06003 17.3773 5.18302 17.2548 5.14788 16.9923C5.41142 17.0273 5.53441 16.9223 5.49927 16.6423C5.8858 16.7123 5.85066 16.4498 5.85066 16.2048C6.09664 16.2048 6.36018 16.2398 6.2899 15.8548C6.57101 15.8898 6.694 15.7848 6.64129 15.5048C6.9224 15.5573 7.04539 15.4348 6.99268 15.1548C7.2738 15.2073 7.39678 15.0848 7.34407 14.8048C7.51977 14.7873 7.7306 14.8048 7.67789 14.5073C7.67789 14.4723 7.69546 14.4198 7.69546 14.3848C8.06443 14.4898 8.09956 14.0873 8.32796 13.9648C8.50366 13.8773 8.64422 13.6323 8.81991 13.5098C9.08346 13.3348 9.06589 12.9148 9.45242 12.8623C9.39971 12.4598 10.0322 12.6523 9.97951 12.2498C10.3133 12.3023 10.366 11.9348 10.5417 11.7948C10.7174 11.6548 11.0512 11.5499 11.0512 11.1999C11.0512 10.9024 11.3499 11.1299 11.4553 11.0249C11.7189 11.0599 11.8243 10.9374 11.8067 10.6749C12.0703 10.7099 12.1757 10.5874 12.1581 10.3249C12.4217 10.3599 12.5447 10.2374 12.5095 9.97487C12.7731 10.0099 12.896 9.90487 12.8609 9.62487C13.2123 9.67737 13.3529 9.53737 13.3001 9.18738C13.5637 9.22238 13.6867 9.11738 13.6515 8.83738C13.9327 8.87238 14.0381 8.76738 14.0029 8.48739C14.284 8.53989 14.407 8.41739 14.3543 8.13739C14.7409 8.20739 14.7057 7.9449 14.7057 7.6999C14.8463 7.7174 15.1274 7.7524 15.0571 7.3674ZM24.6149 3.69245C24.6501 3.41246 24.5447 3.30746 24.2635 3.34246C24.2987 3.06246 24.1933 2.99246 23.9122 2.99246C23.631 2.99246 23.5256 3.07996 23.5608 3.34246C23.3148 3.34246 23.0512 3.30746 23.1215 3.69245C22.8404 3.65745 22.735 3.76245 22.7701 4.04245C22.3836 3.97245 22.4187 4.23495 22.4187 4.47994C22.1376 4.42744 22.0146 4.54994 22.0674 4.82994C21.9619 4.88244 21.7687 4.77744 21.7687 4.91744C21.7511 5.16243 21.6632 5.24993 21.4173 5.21493C21.3294 5.19743 21.3119 5.26743 21.2943 5.35493C21.2416 5.61743 20.9429 5.80992 20.8199 5.86242C20.5037 5.98492 20.5739 6.35242 20.2577 6.49242C20.082 6.56241 19.8009 6.77241 19.6076 7.01741C19.4846 7.17491 19.3616 7.4549 19.0805 7.4899C19.2035 7.8399 18.7643 7.6299 18.7116 7.8749C18.6237 8.24239 18.3602 8.48739 17.9561 8.53989C17.7101 8.52239 17.5871 8.64489 17.6047 8.88989C17.3411 8.85489 17.2357 8.97738 17.2533 9.23988C16.8843 9.18738 16.9195 9.43238 16.9019 9.67737C16.6384 9.64238 16.5154 9.74737 16.5505 10.0274C16.3045 10.0274 16.0586 10.0099 16.1113 10.3774C15.8302 10.3424 15.7247 10.4474 15.7599 10.7274C15.4963 10.6924 15.3734 10.7974 15.4085 11.0774C15.022 11.0074 15.0571 11.2699 15.0571 11.5149C14.8111 11.5149 14.5476 11.4624 14.6179 11.8648C14.3368 11.8123 14.2138 11.9348 14.2665 12.2148C14.1259 12.2673 13.9502 12.1798 13.8975 12.4598C13.8799 12.5648 13.6164 12.8098 13.4231 12.9148C13.1772 13.0548 13.142 13.4398 12.7906 13.4748C12.8961 13.8248 12.4392 13.5973 12.4392 13.8248C12.4392 14.1398 11.9649 14.0698 12 14.3848C11.6135 14.3498 11.7716 14.9448 11.3851 14.9098L10.7526 15.5048C10.5417 15.6273 10.5066 15.9073 10.243 15.9598C10.2958 16.2573 10.0498 16.1698 9.90922 16.2223C9.5754 16.1873 9.43485 16.3273 9.46999 16.6598C9.20644 16.6248 9.10102 16.7473 9.11859 17.0098C8.85505 16.9748 8.73206 17.0973 8.7672 17.3598C8.50366 17.3248 8.38067 17.4298 8.41581 17.7098C8.1347 17.6748 8.02928 17.7798 8.06442 18.0598C7.71303 18.0073 7.57247 18.1473 7.62518 18.4973C7.34407 18.4623 7.22108 18.5673 7.27379 18.8472C6.99268 18.7947 6.88726 18.9172 6.9224 19.1972C6.64129 19.1447 6.5183 19.2672 6.57101 19.5472C6.18448 19.4772 6.21962 19.7397 6.21962 19.9847C5.81552 19.9322 5.65739 20.2997 5.46413 20.5097C5.306 20.6847 5.00732 20.7547 4.98975 21.0347C4.63836 20.9122 4.8492 21.4022 4.58565 21.3847C4.37482 21.3672 4.25183 21.4197 4.28697 21.6647C4.30454 21.7697 4.2694 21.8397 4.14641 21.8222C3.83016 21.7872 3.97072 22.0322 3.91801 22.1722C3.75989 22.1547 3.58419 22.0847 3.58419 22.3647C3.58419 22.5922 3.75988 22.5222 3.8653 22.5222C4.76135 22.5222 5.67496 22.5222 6.57101 22.5047C6.694 22.5047 6.79941 22.5222 6.9224 22.5222C6.9224 22.7672 7.02782 22.8897 7.29136 22.8547C7.43192 22.9072 7.67789 22.7847 7.64275 23.0822C7.62518 23.1697 7.67789 23.2222 7.76574 23.2047C8.18741 23.1347 8.02928 23.4497 8.08199 23.6422C8.04685 23.8872 8.08199 24.0797 8.39825 24.0097C8.39825 24.3072 8.41581 24.5872 8.41581 24.8847C8.41581 31.0796 8.41581 37.2745 8.41581 43.4694C8.41581 43.9594 8.43338 44.4494 8.43338 44.9569C8.38067 45.2719 8.5388 45.3069 8.80234 45.3069C11.8946 45.3069 14.9868 45.3069 18.0791 45.3069C18.3602 45.3069 18.448 45.2194 18.4129 44.9569C18.6764 44.9744 18.7467 44.8519 18.7467 44.5894C18.7467 40.162 18.7467 35.7345 18.7467 31.3071C18.7643 31.2021 18.7643 31.0796 18.7818 30.9746C19.0454 31.0096 19.1684 30.9046 19.1332 30.6246C19.2387 30.6246 19.3616 30.6071 19.4671 30.6071C22.4363 30.6071 25.388 30.6071 28.3572 30.6071C28.4978 30.6071 28.6384 30.6246 28.7789 30.6246C28.7438 30.9046 28.8668 31.0096 29.1303 30.9746C29.1479 31.0796 29.1479 31.2021 29.1655 31.3071C29.1479 31.5346 29.1479 31.7446 29.4817 31.6921C29.4817 35.752 29.4817 39.812 29.4817 43.8719C29.4817 44.2394 29.4993 44.5894 29.4993 44.9569C29.4817 45.1669 29.4993 45.3069 29.7804 45.3069C32.9078 45.2894 36.0176 45.2894 39.145 45.3069C39.4261 45.3069 39.5139 45.2194 39.4788 44.9569C39.4788 42.4719 39.4963 39.987 39.4963 37.502C39.4963 33.0046 39.5139 28.5071 39.5139 24.0097C39.8302 24.0622 39.8653 23.8872 39.8302 23.6422C39.8653 23.4497 39.7423 23.1347 40.1464 23.1872C40.164 22.9422 40.2694 22.8022 40.5329 22.8372C40.7613 22.8372 41.0073 22.8547 40.9898 22.5047C41.1127 22.5047 41.2182 22.4872 41.3411 22.4872C42.2372 22.4872 43.1508 22.5047 44.0469 22.4872C44.1698 22.4872 44.328 22.5397 44.328 22.3297C44.3455 22.0847 44.1874 22.1372 44.0293 22.1372C43.9941 22.1372 43.9414 22.1547 43.9063 22.1547C43.8536 22.0147 43.9941 21.7697 43.6779 21.8047C43.5549 21.8222 43.5373 21.7347 43.5373 21.6472C43.5549 21.2972 43.2035 21.1922 43.0278 21.0697C42.8346 20.9297 42.817 20.5622 42.4656 20.6147C42.5183 20.2122 41.8858 20.4047 41.9385 20.0022C41.552 20.0197 41.6925 19.4422 41.3236 19.4422C41.3763 19.1447 41.1303 19.2497 40.9898 19.1972C41.06 18.8122 40.7965 18.8472 40.5505 18.8472C40.5857 18.5673 40.4802 18.4623 40.1991 18.4973C40.1991 18.2523 40.2343 17.9898 39.8477 18.0598C39.8829 17.7798 39.7599 17.6748 39.4963 17.7098C39.5315 17.4473 39.4085 17.3248 39.145 17.3598C39.1977 16.9923 38.9517 17.0098 38.7057 17.0098C38.7233 16.7473 38.6179 16.6423 38.3543 16.6598C38.3368 16.4323 38.3543 16.1873 38.0029 16.2223C38.0205 15.9773 37.8975 15.8548 37.6515 15.8723C37.5286 15.8198 37.265 15.9073 37.3177 15.6098C37.3353 15.5223 37.2474 15.4873 37.1772 15.5048C36.8258 15.5398 36.7555 15.1723 36.5622 15.0148C36.4217 14.8923 36.0176 14.7698 36.1406 14.4023C35.7716 14.5248 35.877 13.8598 35.4905 14.0173C35.4378 14.0348 35.3851 13.9823 35.3851 13.9123C35.3851 13.6148 34.8931 13.6848 34.9458 13.3348C34.5417 13.3523 34.6999 12.7573 34.3133 12.7748C34.366 12.4598 34.1201 12.5823 33.9795 12.5298C34.0498 12.1448 33.7862 12.1798 33.5403 12.1798C33.593 11.8998 33.47 11.7773 33.1889 11.8298C33.2416 11.5498 33.1186 11.4448 32.8375 11.4798C32.8375 11.2349 32.8726 10.9724 32.4861 11.0424C32.5212 10.7624 32.3982 10.6574 32.1347 10.6924C32.205 10.3074 31.9414 10.3424 31.6955 10.3424C31.7306 10.0799 31.6076 9.95737 31.3441 9.99237C31.3792 9.72987 31.2562 9.60737 30.9927 9.64237C30.9927 9.41488 30.9927 9.15238 30.6413 9.20488C30.694 8.85488 30.448 8.85488 30.202 8.85488C30.1142 8.76739 29.9034 8.92489 29.8858 8.71489C29.8682 8.41739 29.4114 8.46989 29.4466 8.13739C29.0425 8.20739 29.1654 7.6999 28.8492 7.5774C28.6384 7.4899 28.287 7.2624 28.1288 6.99991C28.0059 6.78991 27.7599 6.70241 27.6896 6.52742C27.5842 6.28242 27.1625 6.26492 27.2679 5.89742C26.9165 6.01992 27.0395 5.51243 26.7936 5.52993C26.4597 5.54743 26.4597 5.09243 26.1611 5.05743C26.2138 4.74244 25.9678 4.86494 25.8272 4.81244C25.8624 4.53244 25.757 4.42744 25.4758 4.46244C25.5286 4.11245 25.388 3.97245 25.0366 4.02495C25.0015 3.76245 24.8785 3.63995 24.6149 3.69245Z" fill="#2164B0"/>
</g>
<defs>
<clipPath id="clip0_2085_1783">
<rect width="48" height="48" fill="white"/>
</clipPath>
</defs>
</svg>
