<svg width="48" height="48" viewBox="0 0 48 48" fill="none" xmlns="http://www.w3.org/2000/svg">
<path d="M47.9883 37.3174C47.7887 38.1096 47.5304 38.8782 46.9786 39.5049C46.1686 40.4272 45.1707 40.912 43.9615 40.9947C43.8559 41.0066 43.7385 40.9947 43.6328 40.9947C30.5429 40.9947 17.453 40.9947 4.37492 40.9947C2.59047 40.9947 1.24039 40.2143 0.453824 38.5944C0.195548 38.0505 0.0311909 37.3884 0.0194511 36.7853C-0.00402846 28.2719 -0.00402846 19.7467 0.00771134 11.2215C0.00771134 8.83304 1.89782 7.01212 4.32796 7.01212C13.3911 7.01212 22.4425 7.01212 31.5056 7.01212C35.5089 7.01212 39.5004 7.04759 43.5037 7.00029C45.6638 6.97665 47.5304 8.38372 47.9296 10.4884C47.9413 10.5357 47.9765 10.5712 48 10.6067C47.9883 19.5103 47.9883 28.4138 47.9883 37.3174ZM4.86799 9.87356C4.98538 10.0036 5.04408 10.0746 5.11452 10.1455C10.374 15.4191 15.6334 20.6808 20.9045 25.9544C21.1746 26.2264 21.4798 26.4865 21.8203 26.6875C23.6517 27.7517 25.5887 27.4561 27.1501 25.8953C32.3626 20.6808 37.5633 15.4664 42.764 10.2519C42.8697 10.1455 42.9636 10.0391 43.1045 9.87356C30.3433 9.87356 17.6409 9.87356 4.86799 9.87356ZM5.09104 38.1215C17.6409 38.1215 30.3433 38.1215 42.7875 38.1215C38.9486 34.1722 34.9923 30.1047 30.9303 25.9189C30.1438 26.7703 29.4511 27.6453 28.6411 28.3665C26.5984 30.1756 24.2387 30.5895 21.6559 29.75C20.5641 29.3952 19.6484 28.7449 18.8501 27.929C18.2279 27.2905 17.6057 26.6639 16.9248 25.9544C12.9215 30.081 8.97692 34.1367 5.09104 38.1215ZM14.6707 24.0271C10.7966 20.0542 6.84027 16.0103 2.837 11.9073C2.837 20.0069 2.837 28.0236 2.837 36.1941C6.87549 32.0439 10.8318 27.9763 14.6707 24.0271ZM45.159 11.8245C41.097 15.9867 37.1289 20.0542 33.3135 23.9561C37.1994 27.9527 41.1557 32.0084 45.159 36.135C45.159 28.0236 45.159 20.0069 45.159 11.8245Z" fill="#103A69"/>
</svg>
