<svg width="48" height="48" viewBox="0 0 48 48" fill="none" xmlns="http://www.w3.org/2000/svg">
<path d="M18.9817 12.658V8.88908C18.9817 7.38905 20.209 6.16174 21.709 6.16174H26.2913C27.7914 6.16174 29.0186 7.38905 29.0186 8.88908V12.658" stroke="currentColor" stroke-width="4" stroke-miterlimit="22.9256" stroke-linecap="round" stroke-linejoin="round"/>
<path d="M42.704 24.8462V39.2988C42.704 40.6951 41.5611 41.8381 40.1647 41.8381H7.83149C6.43516 41.8381 5.29224 40.6954 5.29224 39.2988V24.9308" stroke="currentColor" stroke-width="4" stroke-miterlimit="22.9256" stroke-linecap="round" stroke-linejoin="round"/>
<path d="M20.6131 29.121C11.6589 28.609 3.6001 26.0485 3.6001 21.4394V15.4301C3.6001 14.0316 4.74073 12.8909 6.13936 12.8909H41.8583C43.2568 12.8909 44.3975 14.0317 44.3975 15.4301V21.4394C44.3975 26.0773 36.2368 28.641 27.2152 29.1304" stroke="currentColor" stroke-width="4" stroke-miterlimit="22.9256" stroke-linecap="round" stroke-linejoin="round"/>
<path fill-rule="evenodd" clip-rule="evenodd" d="M21.9146 27.579H26.0868V29.5241C26.0868 30.594 25.2114 31.4693 24.1416 31.4693H23.8597C22.7899 31.4693 21.9146 30.594 21.9146 29.5241V27.579Z" stroke="currentColor" stroke-width="4" stroke-miterlimit="22.9256" stroke-linecap="round" stroke-linejoin="round"/>
</svg>
