<svg width="225" height="164" viewBox="0 0 225 164" fill="none" xmlns="http://www.w3.org/2000/svg">
<path d="M156.195 48.3322C156.195 51.7154 156.195 55.0985 156.195 58.472C156.195 59.8776 155.208 60.876 153.791 60.876C149.15 60.876 144.518 60.876 139.877 60.876C138.46 60.876 137.473 59.8776 137.473 58.472C137.473 51.696 137.473 44.9103 137.473 38.1343C137.473 37.1262 137.043 36.37 136.115 35.9144C135.753 35.7399 135.372 35.6915 134.981 35.6915C132.333 35.6915 129.695 35.6915 127.047 35.6915C125.884 35.6915 124.985 34.9741 124.722 33.8593C124.565 33.2099 124.731 32.6185 125.083 32.066C126.92 29.1772 128.767 26.2885 130.604 23.3997C135.333 15.9742 140.072 8.56814 144.792 1.13297C145.739 -0.369574 147.909 -0.388962 148.876 1.14266C152.667 7.13345 156.488 13.1048 160.299 19.0762C163.054 23.3997 165.81 27.7134 168.555 32.0369C169.308 33.2292 169.054 34.5379 167.91 35.3328C167.5 35.6139 167.041 35.7012 166.542 35.7012C163.914 35.7012 161.285 35.7012 158.657 35.7012C157.807 35.7012 157.103 36.0017 156.605 36.7093C156.312 37.1262 156.185 37.5915 156.185 38.0955C156.195 41.5078 156.195 44.92 156.195 48.3322Z" fill="#2C6DB6"/>
<path d="M39.5223 9.5424C39.449 12.3445 39.2587 14.8271 39.0243 17.3098C38.9072 18.6455 38.7461 19.9667 38.6436 21.3024C38.585 22.0283 38.5557 22.7542 38.8193 23.4511C38.9511 23.8141 39.1269 24.1625 39.4344 24.4238C39.8298 24.7578 40.2545 24.8158 40.7377 24.6561C41.3382 24.4529 41.7775 24.0464 42.1436 23.5527C43.0516 22.3187 43.7399 20.9684 44.4282 19.6037C45.2043 18.0647 45.834 16.4532 46.5223 14.8852C47.0935 13.5931 47.7232 12.3154 48.5579 11.1685C49.2901 10.1667 50.1542 9.29559 51.2818 8.72937C53.3174 7.71308 55.3822 8.74389 55.9241 10.9362C56.3048 12.4606 56.0559 13.927 55.4994 15.3643C54.9429 16.7871 54.196 18.1373 53.4931 19.4876C52.2922 21.8105 51.106 24.148 50.0516 26.5435C49.6269 27.5308 49.2608 28.5326 49.0705 29.5924C48.9972 29.9554 49.0119 30.3328 49.0558 30.6958C49.173 31.5524 49.788 32.017 50.7106 31.9734C51.1646 31.9444 51.604 31.8282 52.0286 31.6685C53.332 31.1459 54.5329 30.4345 55.7191 29.7231C57.1396 28.881 58.5454 28.0099 60.0978 27.4146C60.9764 27.0807 61.8697 26.8339 62.8363 26.9936C64.4472 27.2404 65.3698 28.46 65.2087 30.0715C65.0476 31.6831 64.2568 32.9752 63.1585 34.1077C62.148 35.1385 60.9471 35.9225 59.7317 36.6774C58.2672 37.5921 56.7588 38.4487 55.3529 39.465C53.3906 40.8878 51.8236 42.6155 50.8278 44.8368C50.242 46.158 49.9198 47.5517 49.6269 48.96C49.3194 50.47 49.0558 51.9799 48.4993 53.4317C47.6792 55.595 46.3319 57.3517 44.3403 58.6003C42.8465 59.544 41.2942 60.299 39.5223 60.5893C38.6582 60.7345 37.7942 60.8216 36.9302 60.8507C34.9678 60.8942 32.9908 60.8942 31.0284 60.749C29.2272 60.6184 27.4698 60.2844 25.815 59.5585C24.4384 58.9487 23.2815 58.0486 22.3003 56.9016C21.1581 55.5514 20.3965 53.9979 19.7229 52.3864C19.1664 51.0652 18.6539 49.715 18.0827 48.3938C16.6476 45.0981 14.3337 42.659 11.0534 41.1201C9.31067 40.307 7.49475 39.6392 5.69348 38.9568C4.41941 38.4922 3.15998 37.9986 1.98842 37.3162C1.66624 37.1275 1.34406 36.9387 1.06582 36.6919C0.0699924 35.8789 -0.252187 34.8481 0.201793 33.6431C0.802217 32.046 1.98842 31.0443 3.59931 30.5361C4.75623 30.1586 5.94243 30.1586 7.14328 30.2603C8.92991 30.4054 10.658 30.87 12.4007 31.2185C13.3233 31.4072 14.2459 31.5814 15.1978 31.6105C16.0178 31.6395 16.8233 31.596 17.5702 31.204C18.5513 30.6813 19.0346 29.8247 19.2396 28.7794C19.4886 27.4582 19.3129 26.1515 19.0639 24.8449C18.6246 22.5655 17.8191 20.4022 17.0722 18.2244C16.589 16.8307 16.1496 15.4079 15.9007 13.9415C15.681 12.5768 15.5785 11.1975 16.0764 9.86181C16.5011 8.71485 17.2187 7.82923 18.4781 7.53886C19.3421 7.3356 20.1622 7.50982 20.9384 7.85826C22.0807 8.38093 22.9154 9.25203 23.589 10.2828C24.4091 11.5169 24.907 12.8817 25.3317 14.2754C26.1665 17.063 26.9133 19.8796 27.6749 22.6816C27.792 23.1026 27.9531 23.5092 28.2021 23.8721C28.7732 24.7578 29.8276 24.7432 30.3841 23.8576C30.7648 23.2478 30.8966 22.5509 30.9552 21.8541C31.0284 20.9394 30.9113 20.0393 30.8674 19.1246C30.7941 17.7453 30.7063 16.3516 30.6477 14.9723C30.5452 12.9397 30.4134 10.9217 30.4866 8.88907C30.5452 7.05974 30.7209 5.24494 31.3506 3.50272C31.7167 2.50095 32.2293 1.58628 33.0494 0.86036C34.3381 -0.27208 35.9929 -0.286598 37.3109 0.816805C38.3653 1.68791 38.9072 2.84939 39.1708 4.15605C39.4637 5.69501 39.5808 7.66952 39.5223 9.5424ZM44.3256 40.3506C44.3403 37.5921 42.993 35.5885 40.7231 34.7174C39.2147 34.1367 37.721 34.1948 36.2712 34.9352C35.3632 35.3998 34.6749 36.0967 34.1038 36.9388C33.767 37.4469 33.6498 37.4324 33.313 36.9242C32.2146 35.2691 30.677 34.3545 28.656 34.3399C25.6832 34.3109 23.2229 36.6919 23.1058 39.6392C23.0326 41.4395 23.5451 43.0801 24.4677 44.619C25.3025 46.0273 26.4154 47.2178 27.5723 48.3503C29.2565 49.9909 31.1163 51.4427 32.9176 52.9817C33.4448 53.4317 34.0013 53.4172 34.5138 52.9962C36.0515 51.6895 37.6038 50.3974 39.1122 49.0617C40.357 47.9583 41.5285 46.7823 42.4804 45.4175C43.5934 43.7915 44.2964 42.0057 44.3256 40.3506Z" fill="#CD2027"/>
<path d="M114.127 60.7373C113.104 60.7373 112.152 60.429 111.236 60.0257C109.167 59.1006 107.228 57.962 105.325 56.7404C103.518 55.578 101.722 54.3801 99.8781 53.2771C98.8077 52.6366 97.7373 51.9843 96.5717 51.5336C95.7748 51.2252 94.9542 51.0236 94.0979 51.071C93.5745 51.0948 93.0631 51.2134 92.5874 51.4387C90.506 52.435 88.6387 53.7752 86.7952 55.1511C84.9398 56.5269 83.0964 57.9264 81.0507 59.0294C79.6591 59.7885 78.2081 60.3578 76.6263 60.5594C75.5915 60.6899 74.5687 60.6543 73.6053 60.1799C72.1781 59.4801 71.7024 58.3652 72.1662 56.8471C72.416 56.0406 72.8441 55.3171 73.2366 54.5818C74.8304 51.5573 76.7452 48.7227 78.5649 45.8406C79.6234 44.1682 80.7176 42.5315 81.5502 40.7406C82.1687 39.4003 82.6206 38.0008 82.7871 36.5301C82.9893 34.7629 82.6563 33.0905 81.8951 31.5012C81.1934 30.0424 80.23 28.7496 79.1953 27.5161C78.0654 26.164 76.8404 24.8831 75.7343 23.5191C74.3189 21.7756 73.1653 19.8542 72.1424 17.8617C71.3931 16.4147 70.6557 14.9559 70.1443 13.4021C69.8945 12.6549 69.728 11.884 69.728 11.0893C69.7399 9.10863 71.179 8.04119 72.7133 7.8277C74.0216 7.63793 75.1753 8.08863 76.2695 8.7291C77.3994 9.39329 78.3984 10.2354 79.3499 11.1249C80.3965 12.1093 81.3837 13.1412 82.4065 14.1493C84.1311 15.8454 85.9508 17.411 88.056 18.6207C89.6854 19.5459 91.4099 20.2219 93.2891 20.4591C94.8353 20.6489 96.3576 20.4947 97.8562 20.0677C99.783 19.5221 101.543 18.6207 103.256 17.6245C104.957 16.6282 106.586 15.537 108.311 14.6C110.154 13.5919 112.093 12.7972 114.174 12.4414C115.316 12.2517 116.47 12.1805 117.611 12.4651C119.312 12.8803 120.299 14.3747 120.038 16.0945C119.859 17.2331 119.3 18.1938 118.622 19.0952C117.302 20.8387 115.601 22.167 113.782 23.3531C112.378 24.2663 110.868 25.0135 109.429 25.8675C108.097 26.6622 106.764 27.4924 105.682 28.6191C104.754 29.5917 104.1 30.7303 103.874 32.0705C103.66 33.3515 103.851 34.585 104.267 35.7947C104.897 37.5619 105.896 39.1275 107.014 40.622C108.144 42.1282 109.417 43.5278 110.594 44.9985C112.176 46.991 113.698 49.0073 114.804 51.3083C115.589 52.9331 116.22 54.6292 116.553 56.3964C116.743 57.3927 116.803 58.4127 116.41 59.3971C116.077 60.2511 115.411 60.6662 114.519 60.7492C114.376 60.7492 114.245 60.7373 114.127 60.7373Z" fill="#F6D70E"/>
<path d="M86.2954 8.55141C86.2716 3.99699 89.9824 0 94.8825 0C99.6399 0 103.505 3.85466 103.482 8.61072C103.446 13.3075 99.6756 17.1384 94.8825 17.1384C89.9467 17.1265 86.2478 13.1058 86.2954 8.55141Z" fill="#F6D70E"/>
<path d="M202.847 52.955C202.847 54.2502 202.871 55.5331 202.847 56.8284C202.822 58.1483 202.37 59.2832 201.33 60.1343C200.119 61.1212 198.272 61.1212 197.061 60.1467C195.973 59.2709 195.532 58.099 195.52 56.7544C195.508 54.5339 195.508 52.3012 195.508 50.0808C195.508 49.6243 195.52 49.1556 195.471 48.6992C195.422 48.2551 195.239 48.1564 194.872 48.4278C194.554 48.6622 194.26 48.9212 193.955 49.1679C192.389 50.4632 190.603 51.265 188.585 51.4747C186.506 51.6967 184.598 51.2527 182.995 49.797C182.506 49.353 182.09 48.8349 181.723 48.2921C181.209 47.5396 180.781 46.7131 180.194 46.01C179.558 45.2452 178.8 44.6037 177.931 44.1226C176.525 43.3331 175.351 42.3093 174.58 40.866C173.54 38.9293 173.442 36.8939 174.091 34.8462C175.192 31.3182 177.516 28.9127 180.916 27.5435C182.42 26.939 183.998 26.6183 185.613 26.4209C186.396 26.3346 187.166 26.2359 187.924 26.0385C188.059 26.0015 188.181 25.9522 188.304 25.9028C188.365 25.8781 188.426 25.8411 188.426 25.7671C188.438 25.6808 188.365 25.6438 188.304 25.6068C188.059 25.4957 187.802 25.4464 187.545 25.397C186.273 25.1873 184.977 25.0516 183.705 24.8173C181.344 24.3855 179.179 23.5097 177.381 21.8567C175.558 20.1791 174.311 18.1437 173.858 15.6765C173.442 13.4561 173.858 11.4084 175.265 9.6197C175.925 8.79321 176.769 8.17643 177.662 7.63366C178.702 7.00454 179.656 6.27673 180.402 5.28988C180.659 4.95681 180.879 4.61141 181.087 4.24134C182.115 2.34165 183.558 0.910706 185.662 0.306257C187.411 -0.199506 189.16 -0.0638132 190.836 0.602314C194.468 2.02092 196.768 4.68543 197.869 8.43548C198.248 9.75539 198.431 11.1123 198.639 12.4692C198.737 13.086 198.774 13.7152 198.933 14.3319C198.957 14.443 198.994 14.554 199.043 14.6527C199.08 14.7267 199.104 14.8377 199.214 14.8254C199.312 14.813 199.349 14.7267 199.373 14.6403C199.532 14.1099 199.618 13.5795 199.703 13.0367C199.887 11.8155 199.985 10.5942 200.278 9.38532C200.743 7.41161 201.538 5.59827 202.835 4.03164C204.498 2.02092 206.59 0.676328 209.146 0.1829C211.653 -0.298191 213.916 0.244579 215.763 2.10727C216.277 2.62537 216.668 3.22982 217.072 3.83426C217.5 4.48806 217.916 5.14185 218.43 5.7463C219.127 6.56045 219.995 7.15256 220.876 7.70767C221.671 8.21343 222.454 8.7562 223.078 9.48401C224.044 10.6312 224.558 11.9635 224.655 13.4561C224.924 17.3912 222.588 21.5483 219.102 23.3493C217.732 24.0648 216.265 24.4595 214.76 24.7433C213.439 24.99 212.118 25.1997 210.797 25.4341C210.626 25.4587 210.455 25.5204 210.296 25.5821C210.198 25.6191 210.076 25.6438 210.063 25.7671C210.063 25.9028 210.198 25.9275 210.308 25.9645C210.638 26.0878 210.993 26.1372 211.335 26.2112C212.571 26.4456 213.818 26.5319 215.054 26.791C218.234 27.4571 220.913 28.9497 222.808 31.6636C224.117 33.5386 224.802 35.6357 224.68 37.9548C224.57 40.0642 223.714 41.7912 222.05 43.0864C221.622 43.4195 221.182 43.7155 220.717 43.9869C219.335 44.8258 218.197 45.899 217.365 47.3052C216.876 48.1317 216.362 48.9335 215.665 49.612C214.479 50.7839 213.048 51.413 211.397 51.5117C208.706 51.6844 206.369 50.7839 204.339 49.0446C204.058 48.7979 203.776 48.5388 203.458 48.3414C203.14 48.1441 202.969 48.2181 202.932 48.6005C202.871 49.0692 202.896 49.538 202.896 50.0067C202.859 50.9813 202.859 51.9681 202.847 52.955C202.859 52.955 202.859 52.955 202.847 52.955ZM194.273 34.106C194.737 34.106 195.202 34.106 195.667 34.106C196.254 34.106 196.853 34.106 197.44 34.106C197.6 34.106 197.661 34.1554 197.624 34.3158C197.612 34.3651 197.612 34.4144 197.612 34.4638C197.33 36.5362 197.049 38.5962 196.78 40.6686C196.694 41.2977 197.159 41.8775 197.783 41.9392C198.284 41.9885 198.639 41.7295 198.933 41.3348C200.939 38.6826 202.835 35.9687 204.743 33.2425C205.672 31.9226 206.626 30.615 207.58 29.3075C207.849 28.9374 207.862 28.5426 207.654 28.1479C207.446 27.7655 207.177 27.4694 206.675 27.4694C204.669 27.4818 202.663 27.4818 200.657 27.4818C200.352 27.4818 200.339 27.4818 200.388 27.1611C200.498 26.3469 200.608 25.5327 200.719 24.7186C200.89 23.4603 201.061 22.2144 201.232 20.9562C201.306 20.4504 201 19.9077 200.511 19.6856C200.021 19.4759 199.544 19.5993 199.214 20.0434C198.835 20.5491 198.456 21.0672 198.077 21.573C195.471 25.0516 193.098 28.703 190.469 32.1693C190.334 32.3544 190.248 32.5641 190.212 32.7861C190.089 33.4893 190.603 34.106 191.313 34.106C192.291 34.106 193.282 34.106 194.273 34.106Z" fill="#55B948"/>
<path d="M208.69 162.316C206.973 162.316 205.48 161.681 204.211 160.412C203.016 159.143 202.419 157.649 202.419 155.932V86.9493C202.419 85.2322 203.016 83.7391 204.211 82.4699C205.48 81.2007 206.973 80.5662 208.69 80.5662H216.977C218.694 80.5662 220.15 81.2007 221.344 82.4699C222.614 83.7391 223.248 85.2322 223.248 86.9493V155.932C223.248 157.649 222.614 159.143 221.344 160.412C220.15 161.681 218.694 162.316 216.977 162.316H208.69Z" fill="black"/>
<path d="M165.26 130.038C155.854 127.052 149.06 123.357 144.879 118.952C140.698 114.472 138.608 109.022 138.608 102.602C138.608 95.5842 141.034 90.0596 145.887 86.0281C150.814 81.922 157.832 79.8689 166.94 79.8689C173.809 79.8689 180.043 80.6528 185.642 82.2206C187.434 82.7432 188.852 83.8257 189.897 85.4682C191.017 87.036 191.577 88.7904 191.577 90.7315V93.9791C191.577 95.4722 190.942 96.6294 189.673 97.4506C188.404 98.2718 187.06 98.4211 185.642 97.8985C179.296 95.6588 173.435 94.539 168.06 94.539C161.192 94.539 157.757 97.2266 157.757 102.602C157.757 107.156 160.744 110.404 166.716 112.345C177.019 115.48 184.149 119.138 188.105 123.319C192.137 127.5 194.153 132.987 194.153 139.781C194.153 155.832 184.037 163.858 163.805 163.858C157.384 163.858 151.561 162.85 146.335 160.834C144.543 160.162 143.125 159.005 142.079 157.363C141.109 155.646 140.624 153.779 140.624 151.764V148.18C140.624 146.836 141.221 145.828 142.415 145.156C143.61 144.41 144.804 144.335 145.999 144.932C151.449 147.62 157.011 148.964 162.685 148.964C166.642 148.964 169.628 148.217 171.644 146.724C173.734 145.156 174.779 142.954 174.779 140.117C174.779 137.653 174.07 135.638 172.651 134.07C171.233 132.502 168.769 131.158 165.26 130.038Z" fill="black"/>
<path d="M84.4499 162.463C82.7328 162.463 81.2396 161.829 79.9705 160.56C78.776 159.291 78.1787 157.797 78.1787 156.08V87.0973C78.1787 85.3802 78.776 83.887 79.9705 82.6179C81.2396 81.3487 82.7328 80.7141 84.4499 80.7141H124.093C125.81 80.7141 127.266 81.3487 128.46 82.6179C129.729 83.887 130.364 85.3802 130.364 87.0973V89.6729C130.364 91.3901 129.729 92.8832 128.46 94.1524C127.266 95.4215 125.81 96.0561 124.093 96.0561H98.1121C97.5149 96.0561 97.2162 96.3547 97.2162 96.952V111.734C97.2162 112.406 97.5149 112.742 98.1121 112.742H121.853C123.57 112.742 125.026 113.377 126.22 114.646C127.49 115.915 128.124 117.408 128.124 119.125V120.805C128.124 122.522 127.49 124.015 126.22 125.284C125.026 126.553 123.57 127.188 121.853 127.188H98.1121C97.5149 127.188 97.2162 127.487 97.2162 128.084V146.226C97.2162 146.823 97.5149 147.121 98.1121 147.121H124.093C125.81 147.121 127.266 147.756 128.46 149.025C129.729 150.294 130.364 151.788 130.364 153.505V156.08C130.364 157.797 129.729 159.291 128.46 160.56C127.266 161.829 125.81 162.463 124.093 162.463H84.4499Z" fill="black"/>
<path d="M34.5563 97.14L26.3814 129.28C26.3067 129.504 26.3441 129.728 26.4934 129.952C26.7174 130.101 26.9413 130.176 27.1653 130.176H42.1714C42.3953 130.176 42.582 130.101 42.7313 129.952C42.9552 129.728 43.0299 129.504 42.9552 129.28L34.7803 97.14C34.7803 97.0653 34.743 97.028 34.6683 97.028C34.5937 97.028 34.5563 97.0653 34.5563 97.14ZM4.65624 162.316C3.08844 162.316 1.81927 161.681 0.848731 160.412C-0.047152 159.143 -0.233794 157.761 0.288805 156.268L22.9099 86.6134C23.5071 84.8216 24.5523 83.3658 26.0455 82.2459C27.6132 81.1261 29.3304 80.5662 31.1968 80.5662H38.5878C40.5289 80.5662 42.2833 81.1261 43.8511 82.2459C45.4189 83.3658 46.4641 84.8216 46.9867 86.6134L69.4958 156.268C70.0184 157.761 69.7944 159.143 68.8239 160.412C67.928 161.681 66.6962 162.316 65.1284 162.316H57.6253C55.7589 162.316 54.0791 161.756 52.586 160.636C51.0929 159.441 50.1223 157.948 49.6744 156.156L46.9867 145.518C46.9121 144.92 46.5388 144.622 45.8669 144.622H23.4698C22.8725 144.622 22.4992 144.92 22.3499 145.518L19.6623 156.156C19.2143 157.948 18.2438 159.441 16.7507 160.636C15.2575 161.756 13.5777 162.316 11.7113 162.316H4.65624Z" fill="black"/>
</svg>