<svg width="48" height="48" viewBox="0 0 48 48" fill="none" xmlns="http://www.w3.org/2000/svg">
<g clip-path="url(#clip0_2085_1391)">
<path d="M0.00535106 13.9727C0.00535106 13.431 -0.00668882 13.0457 0.00535106 12.6725C0.0414707 11.9141 0.161871 11.1676 0.330429 10.4212C0.486948 9.72292 0.691627 9.04873 0.956504 8.38658C1.30566 7.49568 1.7391 6.66498 2.28089 5.88243C2.90696 4.96746 3.60527 4.12471 4.43603 3.39033C5.49553 2.46331 6.65137 1.68076 7.93963 1.10288C8.67407 0.777827 9.42054 0.512966 10.179 0.3083C11.058 0.0675169 11.973 -0.0889922 12.888 0.0554777C13.8512 0.211987 14.6579 0.705592 15.2599 1.48814C15.7054 2.05398 15.9221 2.72817 16.211 3.37829C16.6445 4.3655 17.0659 5.34067 17.4873 6.32788C17.8244 7.12247 18.1615 7.91705 18.4986 8.6996C18.8839 9.59049 19.2812 10.4934 19.6665 11.3843C20.0397 12.2632 20.4491 13.142 20.7621 14.045C20.9547 14.6108 20.9547 15.2128 20.8464 15.8268C20.6778 16.6936 20.1842 17.3678 19.7267 18.0781C18.8839 19.3663 18.0411 20.6545 17.1983 21.9427C16.9334 22.34 16.6685 22.7373 16.4037 23.1346C16.3194 23.267 16.3194 23.4115 16.3916 23.5318C17.0177 24.6876 17.716 25.7952 18.5468 26.8185C19.1849 27.6011 19.8952 28.3234 20.6417 28.9856C21.7614 29.9848 23.0136 30.7794 24.3018 31.5258C24.7714 31.8027 25.0363 31.5499 25.3613 31.3332C26.7941 30.3821 28.2268 29.4431 29.6475 28.4799C30.1412 28.1428 30.6228 27.7937 31.1525 27.5048C31.8749 27.1195 32.6455 26.975 33.4401 27.0834C34.0541 27.1677 34.632 27.4446 35.1979 27.6854C36.0046 28.0224 36.8113 28.3836 37.6179 28.7328C38.5089 29.118 39.3998 29.5153 40.3028 29.9006C41.0975 30.2377 41.9041 30.5627 42.6867 30.9118C43.8546 31.4295 45.0706 31.8389 46.1903 32.4769C47.0692 32.9705 47.6231 33.7411 47.8759 34.7283C48.0685 35.4627 48.0084 36.173 47.888 36.9074C47.7916 37.4973 47.6471 38.0631 47.4786 38.6169C47.2137 39.4717 46.8525 40.3024 46.407 41.0729C45.6606 42.3611 44.7696 43.5289 43.6499 44.5281C42.5904 45.4672 41.4346 46.2257 40.1463 46.8035C39.4119 47.1286 38.6654 47.3935 37.8949 47.5981C37.3651 47.7306 36.8113 47.8028 36.2695 47.8871C35.1859 48.0556 34.0902 47.9954 33.0067 47.9593C32.2843 47.9352 31.5619 47.8871 30.8395 47.7787C30.406 47.7185 29.9485 47.6704 29.5151 47.6102C28.9251 47.5259 28.3472 47.4296 27.7693 47.2971C27.36 47.2008 26.9386 47.1286 26.5292 47.0323C25.9754 46.8878 25.4095 46.7674 24.8677 46.5868C24.4704 46.4544 24.061 46.334 23.6637 46.2136C23.0497 46.033 22.4477 45.8043 21.8457 45.5635C21.0631 45.2505 20.2805 44.9014 19.522 44.5281C18.0411 43.8058 16.6204 42.9871 15.2599 42.0601C13.2131 40.6756 11.3349 39.0864 9.62522 37.3046C8.42123 36.0526 7.31356 34.7162 6.31425 33.2956C5.20658 31.7305 4.24339 30.0811 3.41264 28.3595C2.84676 27.1797 2.35313 25.9758 1.93173 24.7358C1.69093 24.0375 1.46218 23.3272 1.2575 22.6169C1.10098 22.051 0.968541 21.4852 0.848143 20.9073C0.667544 20.0044 0.486946 19.1135 0.366547 18.1985C0.270228 17.4521 0.210029 16.6936 0.12575 15.9472C0.0173909 15.2248 0.0294308 14.5145 0.00535106 13.9727ZM34.2588 44.1549C34.7524 44.1188 35.2461 44.1429 35.7518 44.0707C36.4741 43.9623 37.1725 43.8058 37.8587 43.577C38.6895 43.2881 39.448 42.8908 40.1583 42.3852C41.266 41.6026 42.169 40.6395 42.8673 39.4717C43.2526 38.8336 43.5536 38.1474 43.7823 37.4371C43.9148 37.0398 43.975 36.6425 44.0954 36.2452C44.1556 36.0405 44.2519 35.7516 43.9268 35.6432C43.5175 35.4988 43.1202 35.3061 42.7228 35.1376C41.7356 34.7283 40.7483 34.3069 39.761 33.8855C38.7858 33.4642 37.8106 33.0307 36.8353 32.6214C35.6314 32.1158 34.4274 31.6222 33.2475 31.0804C33.0789 31.0082 32.9103 30.9359 32.6816 31.1045C32.0796 31.5379 31.4656 31.9352 30.8515 32.3445C29.5633 33.2113 28.2389 34.0541 26.9506 34.9209C26.4088 35.2821 25.8068 35.4988 25.1687 35.5951C24.4222 35.7034 23.6998 35.5469 23.0376 35.2098C21.2437 34.3069 19.5702 33.2113 18.0652 31.875C17.0297 30.96 16.1027 29.9608 15.2478 28.8772C14.4893 27.9021 13.8151 26.8787 13.2251 25.7952C12.9482 25.3016 12.6593 24.796 12.5509 24.2542C12.4546 23.7967 12.3342 23.3272 12.4787 22.8095C12.587 22.4242 12.6352 22.0029 12.8399 21.6417C13.5382 20.4017 14.3689 19.2459 15.1395 18.042C15.7535 17.0909 16.3675 16.1278 16.9936 15.1767C17.0297 15.1165 17.0779 15.1044 17.0297 15.0081C16.8612 14.6349 16.7287 14.2496 16.5722 13.8764C16.1508 12.8892 15.7174 11.9141 15.296 10.9268C14.8746 9.95167 14.4773 8.96446 14.0559 7.98928C13.5502 6.79741 13.0205 5.61757 12.5268 4.42569C12.2981 3.87189 12.1897 3.7515 11.8044 3.85985C11.1663 4.04044 10.5282 4.18491 9.90213 4.42569C8.99914 4.78687 8.16839 5.28047 7.42191 5.89447C6.45872 6.67702 5.67613 7.61607 5.0621 8.71163C4.71294 9.33767 4.43603 9.99983 4.24339 10.6861C4.09891 11.1917 4.02667 11.7214 3.94239 12.2511C3.80995 13.142 3.83404 14.0329 3.90627 14.9118C3.97851 15.8749 4.02667 16.8501 4.20727 17.8132C4.26747 18.1744 4.31563 18.5476 4.37583 18.8968C4.50826 19.5348 4.6407 20.185 4.79722 20.823C4.96578 21.4731 5.13434 22.1112 5.33902 22.7373C5.64001 23.6643 5.98917 24.5793 6.37445 25.4822C6.85605 26.5898 7.3858 27.6733 7.98779 28.7087C9.07138 30.5627 10.3235 32.2964 11.7563 33.8855C13.2011 35.4867 14.7903 36.9314 16.5241 38.1955C17.6197 39.0022 18.7635 39.7366 19.9554 40.3746C21.1835 41.0368 22.4477 41.6147 23.76 42.1083C24.651 42.4454 25.566 42.7463 26.469 43.0112C27.3359 43.264 28.2148 43.4567 29.1057 43.6132C29.9485 43.7697 30.8034 43.9141 31.6582 43.9623C32.5251 44.0466 33.3919 44.2151 34.2588 44.1549Z" fill="#103A69"/>
</g>
<defs>
<clipPath id="clip0_2085_1391">
<rect width="48" height="48" fill="white"/>
</clipPath>
</defs>
</svg>
