<svg width="30" height="30" viewBox="0 0 30 30" fill="none" xmlns="http://www.w3.org/2000/svg">
<path d="M9.41069 4.60463C9.49854 4.57182 9.60835 4.63744 9.64129 4.45151C9.65227 4.36401 9.83895 4.29838 9.91582 4.16713C10.0256 3.99214 10.3331 3.99213 10.3441 3.7187C10.5527 3.75151 10.5198 3.4562 10.7064 3.4562C10.8382 3.4562 10.7284 3.14996 10.959 3.23746C10.9261 3.02965 11.2335 3.06246 11.2335 2.87653C11.2335 2.79996 11.2994 2.8109 11.3543 2.8109C11.3982 2.8109 11.4422 2.79996 11.4861 2.78903C11.4092 2.55934 11.7277 2.57028 11.7387 2.38435C11.7387 2.26403 11.8814 2.35153 11.9363 2.29684C12.101 2.31872 12.1669 2.24216 12.1559 2.0781C12.3206 2.09997 12.3975 2.02341 12.3755 1.85935C12.5842 1.88123 12.672 1.79373 12.6501 1.58592C12.8148 1.60779 12.8917 1.54217 12.8697 1.36717C13.0344 1.38904 13.1113 1.32342 13.0893 1.14842C13.265 1.1703 13.3309 1.10467 13.3089 0.929675C13.4627 0.929675 13.6274 0.95155 13.5835 0.710928C13.825 0.754678 13.8031 0.590617 13.8031 0.437494C13.9678 0.459369 14.0556 0.393745 14.0227 0.218747C14.0886 0.20781 14.1545 0.207812 14.2313 0.196874C14.396 0.229686 14.4619 0.153123 14.4619 0C14.7694 0 15.0769 0 15.3953 0C15.3953 0.153123 15.4612 0.229686 15.6259 0.196874C15.7138 0.207812 15.8016 0.20781 15.8895 0.218747C15.8565 0.393745 15.9444 0.459369 16.1091 0.437494C16.1091 0.590617 16.0871 0.754678 16.3287 0.710928C16.3067 0.885926 16.3726 0.95155 16.5483 0.929675C16.5044 1.1703 16.6691 1.14842 16.8228 1.14842C16.8009 1.31248 16.8777 1.38904 17.0425 1.36717C17.0205 1.53123 17.0974 1.60779 17.2621 1.58592C17.2621 1.7281 17.2511 1.89216 17.4817 1.85935C17.4707 2.02341 17.5366 2.08903 17.7013 2.0781C17.6794 2.29684 17.8331 2.28591 17.9758 2.29684C18.0417 2.34059 18.1406 2.27497 18.1955 2.42809C18.2504 2.58122 18.47 2.65778 18.5469 2.8109C18.6237 2.96402 18.8104 2.9859 18.8543 3.14996C18.8653 3.17184 18.8653 3.19371 18.8763 3.22652C19.1179 3.13902 19.0959 3.51089 19.3045 3.46714C19.2826 3.67495 19.634 3.65308 19.5681 3.88276C19.7548 3.8937 19.7657 4.11245 19.9414 4.17807C20.0732 4.22182 20.172 4.38588 20.2928 4.48432C20.4356 4.60463 20.5015 4.81244 20.7211 4.83431C20.7211 4.98744 20.6991 5.1515 20.9407 5.10775C20.8968 5.34837 21.0615 5.32649 21.2152 5.32649C21.1933 5.50149 21.2592 5.56712 21.4348 5.54524C21.4129 5.7093 21.4898 5.78586 21.6545 5.76399C21.6545 5.91711 21.6325 6.08117 21.8741 6.03742C21.8521 6.20148 21.929 6.27804 22.0937 6.25617C22.0608 6.48585 22.2145 6.47491 22.3682 6.47491C22.3463 6.63897 22.4231 6.7046 22.5878 6.69366C22.5769 6.85772 22.6428 6.92334 22.8075 6.91241C22.8184 7.05459 22.8075 7.20772 23.0271 7.18584C23.2796 7.18584 23.4004 7.39366 23.4993 7.54678C23.5652 7.65615 23.8397 7.57959 23.7409 7.80927C23.9605 7.76552 23.9056 8.09365 24.1142 8.07177C24.1801 8.06083 24.1801 8.12645 24.1801 8.1702C24.1581 8.32333 24.235 8.33426 24.3668 8.35614C24.4985 8.37801 24.5315 8.54207 24.6633 8.62957C24.806 8.71707 24.8829 8.94676 25.0805 9.01238C25.1025 9.02332 25.1025 9.078 25.1245 9.09988C25.2233 9.30769 25.3441 9.48269 25.6076 9.50456C25.5747 9.67956 25.6515 9.74518 25.8272 9.72331C25.7943 9.89831 25.8712 9.96393 26.0469 9.94206C26.0249 10.1171 26.1018 10.1827 26.2665 10.1608C26.2335 10.3795 26.3214 10.467 26.541 10.4342C26.519 10.6092 26.5959 10.6749 26.7606 10.653C26.7387 10.817 26.8155 10.8936 26.9802 10.8717C26.9583 11.0358 27.0351 11.1124 27.1999 11.0905C27.1889 11.2545 27.2548 11.3202 27.4195 11.3092C27.3975 11.517 27.4854 11.6045 27.694 11.5827C27.7818 11.6155 27.9246 11.5608 27.9026 11.7467C27.8917 11.867 28.1991 11.7795 28.1223 11.9983C28.3419 11.9545 28.298 12.2827 28.4956 12.2608C28.5395 12.2608 28.5615 12.2936 28.5505 12.3264C28.5176 12.5123 28.6603 12.4795 28.7592 12.5451C28.858 12.6108 28.9678 12.7201 29.0556 12.8186C29.1655 12.9498 29.3411 13.0373 29.407 13.1795C29.5059 13.3764 29.8682 13.3436 29.7914 13.6608C29.7694 13.8139 29.8133 13.9123 30 13.8904C30 14.1967 30 14.5029 30 14.8092C29.8463 14.8092 29.7694 14.8748 29.8023 15.0389C29.7914 15.1045 29.7914 15.1701 29.7804 15.2467C29.6266 15.2467 29.4619 15.2248 29.5059 15.4654C29.407 15.4873 29.2533 15.4326 29.2862 15.6295C29.3082 15.7389 29.2204 15.7279 29.1545 15.7389C29.0556 15.7389 28.9568 15.7498 28.858 15.7498C28.1442 15.7498 27.4195 15.7498 26.7057 15.7389C26.519 15.7389 26.53 15.8373 26.552 15.9576C26.552 16.1217 26.541 16.2857 26.541 16.4498C26.541 20.5732 26.541 24.7075 26.53 28.8309C26.3214 28.7871 26.2445 28.8637 26.2884 29.0715C26.2884 29.1371 26.2775 29.2137 26.2775 29.2793C26.1127 29.2574 26.0469 29.3449 26.0688 29.498C25.8382 29.4652 25.8492 29.6184 25.8492 29.7715C25.6955 29.7496 25.5747 29.7715 25.6186 29.9793C22.7745 30.0121 19.9305 30.0012 17.0864 29.9793C17.1193 29.7934 17.0205 29.7496 16.8668 29.7715C16.8887 29.5746 16.8558 29.4324 16.6032 29.4871C16.6032 27.6168 16.5922 25.7575 16.5922 23.8872C16.5922 22.9575 16.5813 22.0278 16.5922 21.0982C16.5922 20.8466 16.5593 20.7482 16.2628 20.7482C15.4063 20.77 14.5498 20.77 13.6823 20.7482C13.3858 20.7372 13.3529 20.8466 13.3529 21.0982C13.3638 23.1653 13.3638 25.2325 13.3529 27.2996C13.3529 28.0324 13.3419 28.7543 13.3419 29.4871C13.0783 29.4324 13.1442 29.6293 13.1332 29.7715C12.9685 29.7496 12.8807 29.8043 12.9136 29.9793C11.7057 29.9793 10.5088 29.9902 9.30088 29.9902C7.66472 29.9902 6.01757 29.9793 4.38141 29.9793C4.42533 29.7715 4.30454 29.7605 4.15081 29.7715C4.13983 29.6293 4.15081 29.4652 3.93119 29.498C3.97511 29.2684 3.8104 29.2793 3.66764 29.2684C3.66764 29.2027 3.65666 29.1262 3.65666 29.0606C3.66765 28.9184 3.6896 28.7762 3.459 28.8199C3.459 24.6309 3.459 20.431 3.459 16.242C3.459 16.1435 3.44802 16.0451 3.44802 15.9467C3.46999 15.8154 3.48097 15.7279 3.29429 15.7279C2.58053 15.7389 1.85578 15.7389 1.14202 15.7389C1.03221 15.7279 0.933382 15.7279 0.823573 15.717C0.779649 15.717 0.713764 15.717 0.724744 15.6623C0.768668 15.4107 0.57101 15.4654 0.439239 15.4435C0.461201 15.2795 0.395315 15.192 0.219619 15.2248C0.208638 15.1592 0.20864 15.0936 0.197659 15.017C0.219621 14.8639 0.142753 14.7873 0 14.7873C0 14.4811 0 14.1748 0 13.8686C0.175695 13.8904 0.2306 13.792 0.208638 13.6389C0.219619 13.442 0.417278 13.2451 0.625916 13.1358C0.735726 13.0811 0.812594 12.9498 0.911422 12.8514C1.04319 12.7311 1.14202 12.5561 1.31772 12.4905C1.33968 12.4795 1.35066 12.4576 1.36164 12.4358C1.43851 12.2717 1.6142 12.1514 1.80088 11.9873C1.88873 11.9108 2.05344 11.7905 2.06442 11.7139C2.08639 11.5389 2.20718 11.5827 2.28404 11.5498C2.50366 11.5827 2.49268 11.4295 2.50366 11.2764C2.66838 11.2983 2.73426 11.2217 2.72328 11.0577C2.86603 11.0577 3.03075 11.0686 2.99781 10.8389C3.16252 10.8608 3.23939 10.7842 3.21743 10.6202C3.38214 10.642 3.45901 10.5764 3.43704 10.4014C3.67863 10.4452 3.65666 10.2811 3.65666 10.128C3.8104 10.128 3.97511 10.1499 3.93119 9.90924C4.10688 9.93112 4.18375 9.8655 4.15081 9.6905C4.3265 9.72331 4.40337 9.64675 4.37043 9.47175C4.54612 9.50456 4.62299 9.428 4.59005 9.253C4.69986 9.24207 4.83163 9.253 4.79868 9.06707C4.79868 9.04519 4.80967 9.01238 4.80967 8.9905C5.04027 9.05613 5.06223 8.80457 5.20498 8.72801C5.31479 8.67332 5.40264 8.5202 5.51245 8.44364C5.67716 8.33426 5.66618 8.07177 5.90776 8.03896C5.87482 7.7874 6.27013 7.90771 6.23719 7.65615C6.44583 7.68896 6.47877 7.45928 6.58858 7.37178C6.69839 7.28428 6.90703 7.21866 6.90703 6.99991C6.90703 6.81398 7.09371 6.95616 7.15959 6.89054C7.32431 6.91241 7.39019 6.83585 7.37921 6.67179C7.54393 6.69367 7.60981 6.6171 7.59883 6.45304C7.76355 6.47492 7.84041 6.39836 7.81845 6.2343C7.98316 6.25617 8.06003 6.19054 8.03807 6.01555C8.25769 6.04836 8.34554 5.96086 8.31259 5.74211C8.47731 5.76399 8.55418 5.69836 8.53221 5.52336C8.70791 5.54524 8.77379 5.47962 8.75183 5.30462C8.92753 5.33743 9.00439 5.26087 8.97145 5.08587C9.21303 5.12962 9.19107 4.96556 9.19107 4.81244C9.27892 4.82337 9.45461 4.84525 9.41069 4.60463ZM15.3843 2.30778C15.4063 2.13279 15.3404 2.06716 15.1647 2.08904C15.1867 1.91404 15.1208 1.87029 14.9451 1.87029C14.7694 1.87029 14.7035 1.92498 14.7255 2.08904C14.5717 2.08904 14.407 2.06716 14.451 2.30778C14.2753 2.28591 14.2094 2.35153 14.2313 2.52653C13.9898 2.48278 14.0117 2.64684 14.0117 2.79996C13.836 2.76715 13.7592 2.84371 13.7921 3.01871C13.7262 3.05152 13.6054 2.9859 13.6054 3.0734C13.5944 3.22652 13.5395 3.28121 13.3858 3.25933C13.3309 3.2484 13.3199 3.29214 13.3089 3.34683C13.276 3.51089 13.0893 3.6312 13.0125 3.66401C12.8148 3.74058 12.8587 3.97026 12.6611 4.05776C12.5512 4.10151 12.3756 4.23276 12.2548 4.38588C12.1779 4.48432 12.101 4.65932 11.9253 4.68119C12.0022 4.89994 11.7277 4.76869 11.6947 4.92181C11.6398 5.15149 11.4751 5.30462 11.2226 5.33743C11.0688 5.32649 10.992 5.40306 11.0029 5.55618C10.8382 5.5343 10.7723 5.61087 10.7833 5.77493C10.5527 5.74211 10.5747 5.89524 10.5637 6.04836C10.399 6.02648 10.3221 6.09211 10.3441 6.26711C10.1903 6.26711 10.0366 6.25617 10.0695 6.48585C9.89385 6.46398 9.82797 6.5296 9.84993 6.7046C9.68521 6.68273 9.60835 6.74835 9.63031 6.92335C9.38873 6.8796 9.41069 7.04366 9.41069 7.19678C9.25696 7.19678 9.09224 7.16397 9.13617 7.41553C8.96047 7.38272 8.8836 7.45928 8.91655 7.63428C8.8287 7.66709 8.71889 7.6124 8.68595 7.7874C8.67496 7.85302 8.51025 8.00615 8.38946 8.07177C8.23572 8.15927 8.21377 8.39989 7.99415 8.42177C8.06003 8.64051 7.77453 8.49833 7.77453 8.64051C7.77453 8.83739 7.47804 8.79363 7.5 8.9905C7.25842 8.96863 7.35725 9.3405 7.11567 9.31862L6.72035 9.6905C6.58858 9.76706 6.56662 9.94205 6.40191 9.97487C6.43485 10.1608 6.28111 10.1061 6.19326 10.1389C5.98463 10.1171 5.89678 10.2046 5.91874 10.4124C5.75403 10.3905 5.68814 10.467 5.69912 10.6311C5.53441 10.6092 5.45754 10.6858 5.4795 10.8499C5.31479 10.828 5.23792 10.8936 5.25988 11.0686C5.08419 11.0467 5.0183 11.1124 5.04026 11.2873C4.82064 11.2545 4.7328 11.342 4.76574 11.5608C4.59004 11.5389 4.51318 11.6045 4.54612 11.7795C4.37042 11.7467 4.30454 11.8233 4.3265 11.9983C4.1508 11.9655 4.07394 12.042 4.10688 12.217C3.8653 12.1733 3.88726 12.3373 3.88726 12.4905C3.6347 12.4576 3.53587 12.6873 3.41508 12.8186C3.31625 12.928 3.12958 12.9717 3.11859 13.1467C2.89897 13.0701 3.03075 13.3764 2.86603 13.3654C2.73426 13.3545 2.65739 13.3873 2.67936 13.5404C2.69034 13.6061 2.66838 13.6498 2.59151 13.6389C2.39385 13.617 2.4817 13.7701 2.44876 13.8576C2.34993 13.8467 2.24012 13.8029 2.24012 13.9779C2.24012 14.1201 2.34993 14.0764 2.41581 14.0764C2.97584 14.0764 3.54685 14.0764 4.10688 14.0654C4.18375 14.0654 4.24963 14.0764 4.3265 14.0764C4.3265 14.2295 4.39239 14.3061 4.5571 14.2842C4.64495 14.317 4.79868 14.2404 4.77672 14.4264C4.76574 14.4811 4.79868 14.5139 4.85359 14.5029C5.11713 14.4592 5.0183 14.6561 5.05125 14.7764C5.02928 14.9295 5.05125 15.0498 5.2489 15.0061C5.2489 15.192 5.25988 15.367 5.25988 15.5529C5.25988 19.4247 5.25988 23.2966 5.25988 27.1684C5.25988 27.4746 5.27086 27.7809 5.27086 28.0981C5.23792 28.2949 5.33675 28.3168 5.50147 28.3168C7.43412 28.3168 9.36676 28.3168 11.2994 28.3168C11.4751 28.3168 11.53 28.2621 11.5081 28.0981C11.6728 28.109 11.7167 28.0324 11.7167 27.8684C11.7167 25.1012 11.7167 22.3341 11.7167 19.5669C11.7277 19.5013 11.7277 19.4247 11.7387 19.3591C11.9034 19.381 11.9802 19.3154 11.9583 19.1404C12.0242 19.1404 12.101 19.1294 12.1669 19.1294C14.0227 19.1294 15.8675 19.1294 17.7233 19.1294C17.8111 19.1294 17.899 19.1404 17.9868 19.1404C17.9649 19.3154 18.0417 19.381 18.2064 19.3591C18.2174 19.4247 18.2174 19.5013 18.2284 19.5669C18.2174 19.7091 18.2174 19.8404 18.4261 19.8076C18.4261 22.345 18.4261 24.8825 18.4261 27.4199C18.4261 27.6496 18.437 27.8684 18.437 28.0981C18.4261 28.2293 18.437 28.3168 18.6127 28.3168C20.5674 28.3059 22.511 28.3059 24.4656 28.3168C24.6413 28.3168 24.6962 28.2621 24.6742 28.0981C24.6742 26.545 24.6852 24.9919 24.6852 23.4388C24.6852 20.6279 24.6962 17.8169 24.6962 15.0061C24.8939 15.0389 24.9158 14.9295 24.8939 14.7764C24.9158 14.6561 24.839 14.4592 25.0915 14.492C25.1025 14.3389 25.1684 14.2514 25.3331 14.2733C25.4758 14.2733 25.6296 14.2842 25.6186 14.0654C25.6955 14.0654 25.7614 14.0545 25.8382 14.0545C26.3982 14.0545 26.9693 14.0654 27.5293 14.0545C27.6061 14.0545 27.705 14.0873 27.705 13.9561C27.716 13.8029 27.6171 13.8358 27.5183 13.8358C27.4963 13.8358 27.4634 13.8467 27.4414 13.8467C27.4085 13.7592 27.4963 13.6061 27.2987 13.6279C27.2218 13.6389 27.2108 13.5842 27.2108 13.5295C27.2218 13.3108 27.0022 13.2451 26.8924 13.1686C26.7716 13.0811 26.7606 12.8514 26.541 12.8842C26.5739 12.6326 26.1786 12.753 26.2116 12.5014C25.97 12.5123 26.0578 12.1514 25.8272 12.1514C25.8602 11.9655 25.7064 12.0311 25.6186 11.9983C25.6625 11.7577 25.4978 11.7795 25.3441 11.7795C25.366 11.6045 25.3002 11.5389 25.1245 11.5608C25.1245 11.4077 25.1464 11.2436 24.9048 11.2873C24.9268 11.1124 24.8499 11.0467 24.6852 11.0686C24.7072 10.9045 24.6303 10.828 24.4656 10.8499C24.4985 10.6202 24.3448 10.6311 24.1911 10.6311C24.2021 10.467 24.1362 10.4014 23.9715 10.4124C23.9605 10.2702 23.9715 10.1171 23.7518 10.1389C23.7628 9.9858 23.6859 9.90924 23.5322 9.92018C23.4553 9.88737 23.2906 9.94205 23.3236 9.75612C23.3346 9.70143 23.2797 9.67956 23.2357 9.6905C23.0161 9.71237 22.9722 9.48269 22.8514 9.38425C22.7635 9.30769 22.511 9.23113 22.5878 9.00145C22.3572 9.07801 22.4231 8.66239 22.1816 8.76082C22.1486 8.77176 22.1157 8.73895 22.1157 8.6952C22.1157 8.50927 21.8082 8.55301 21.8411 8.33426C21.5886 8.3452 21.6874 7.97334 21.4458 7.98427C21.4788 7.7874 21.325 7.86396 21.2372 7.83115C21.2811 7.59053 21.1164 7.6124 20.9627 7.6124C20.9956 7.4374 20.9187 7.36084 20.743 7.39365C20.776 7.21866 20.6991 7.15303 20.5234 7.17491C20.5234 7.02178 20.5454 6.85772 20.3038 6.90147C20.3258 6.72647 20.2489 6.66085 20.0842 6.68272C20.1281 6.4421 19.9634 6.46398 19.8097 6.46398C19.8316 6.29992 19.7548 6.22336 19.59 6.24523C19.612 6.08117 19.5351 6.00461 19.3704 6.02648C19.3704 5.8843 19.3704 5.72024 19.1508 5.75305C19.1838 5.5343 19.03 5.5343 18.8763 5.5343C18.8214 5.47962 18.6896 5.57805 18.6786 5.44681C18.6676 5.26087 18.3821 5.29368 18.4041 5.08587C18.1515 5.12962 18.2284 4.81244 18.0307 4.73588C17.899 4.68119 17.6794 4.539 17.5805 4.37494C17.5037 4.24369 17.3499 4.18901 17.306 4.07964C17.2401 3.92651 16.9766 3.91557 17.0425 3.68589C16.8228 3.76245 16.8997 3.44527 16.746 3.4562C16.5373 3.46714 16.5373 3.18277 16.3507 3.1609C16.3836 2.96402 16.2299 3.04058 16.142 3.00777C16.164 2.83278 16.0981 2.76715 15.9224 2.78903C15.9553 2.57028 15.8675 2.48278 15.6479 2.51559C15.6259 2.35153 15.5491 2.27497 15.3843 2.30778Z" fill="#F6D70E"/>
</svg>
