<svg width="23" height="30" viewBox="0 0 23 30" fill="none" xmlns="http://www.w3.org/2000/svg">
<path d="M3.65095 30C3.26173 29.8576 2.85202 29.7965 2.47304 29.6134C0.926395 28.8403 0.117222 27.589 0.00455231 25.88C-0.00569039 25.7986 0.00455231 25.7274 0.00455231 25.646C0.00455231 18.5453 0.00455231 11.4547 0.00455231 4.35402C0.00455231 2.41099 1.11076 0.844354 2.91348 0.223805C3.3027 0.0915565 3.70217 0.0101729 4.12212 0.0101729C6.53939 0.0101729 8.95667 0.0101729 11.3739 0C11.6812 0 11.8861 0.152594 12.0909 0.34588C14.7131 2.95015 17.3352 5.55443 19.9471 8.1587C20.8484 9.05392 21.7396 9.93896 22.6409 10.824C22.8867 11.0682 23.0096 11.3327 22.9994 11.6785C22.9892 16.3377 22.9994 20.9969 22.9892 25.646C22.9892 27.762 21.6883 29.41 19.6296 29.9186C19.4964 29.9491 19.3325 29.8779 19.2199 30C14.037 30 8.844 30 3.65095 30ZM1.29513 14.9746C1.29513 18.5351 1.29513 22.1058 1.29513 25.6663C1.29513 27.3957 2.59595 28.708 4.32697 28.708C9.11031 28.708 13.8834 28.708 18.6667 28.708C20.408 28.708 21.7088 27.4059 21.7088 25.6663C21.7088 21.2309 21.7088 16.7955 21.7191 12.3703C21.7191 12.1363 21.6679 12.0651 21.422 12.0651C19.353 12.0753 17.2942 12.0651 15.2252 12.0753C14.0985 12.0855 13.105 11.7497 12.2548 11.0071C11.251 10.1221 10.8106 8.99288 10.8106 7.68057C10.8106 5.63581 10.8106 3.60122 10.8106 1.55646C10.8106 1.33266 10.7696 1.26144 10.5238 1.26144C8.46502 1.27162 6.41648 1.27162 4.3577 1.27162C4.17333 1.27162 3.97872 1.27162 3.80459 1.30214C2.2477 1.60732 1.29513 2.77721 1.29513 4.36419C1.29513 7.90437 1.29513 11.4446 1.29513 14.9746ZM20.6436 10.7833C17.7961 7.95524 14.9384 5.11699 12.1114 2.30926C12.1114 4.15056 12.0602 6.0529 12.1319 7.95524C12.1934 9.61343 13.4532 10.7731 15.092 10.7833C16.9152 10.8037 18.7487 10.7833 20.5719 10.7833C20.6129 10.7935 20.6538 10.7833 20.6436 10.7833Z" fill="#F6D70E"/>
</svg>
