<svg width="25" height="22" viewBox="0 0 25 22" fill="none" xmlns="http://www.w3.org/2000/svg">
<path d="M2.23942 21.999C0.545996 21.9879 -0.455143 20.326 0.205184 18.6862C0.854861 17.0908 1.52584 15.4953 2.17552 13.911C2.51633 13.08 2.8465 12.2491 3.20861 11.4181C3.33642 11.119 3.33642 10.8752 3.20861 10.5761C2.21812 8.20511 1.23828 5.83411 0.258436 3.46312C-0.178232 2.3995 -0.0610744 1.42452 0.620554 0.693276C1.29153 -0.0379637 2.17551 -0.193072 3.21926 0.239024C9.97164 3.08643 16.724 5.94491 23.4764 8.79231C24.4562 9.20225 25.0207 10.0221 24.9994 10.975C24.9781 12.0497 24.4456 12.7809 23.4977 13.1798C16.6921 16.0493 9.89709 18.9189 3.09145 21.7995C2.81454 21.9325 2.50568 22.01 2.23942 21.999ZM2.50568 19.4396C2.62283 19.4064 2.75064 19.3953 2.85715 19.3399C9.30067 16.6254 15.7335 13.8999 22.1664 11.1855C22.2623 11.1412 22.422 11.1522 22.4327 10.9306C15.7868 8.12755 9.13026 5.31339 2.44178 2.48815C2.42048 2.77621 2.53763 2.9424 2.61218 3.11967C3.45357 5.16935 4.31626 7.21904 5.14699 9.26873C5.30675 9.66759 5.5091 9.81162 5.93512 9.80054C7.51139 9.76731 9.08765 9.77837 10.6746 9.78945C11.6225 9.80053 12.1976 10.6315 11.8355 11.4625C11.6012 11.9943 11.1645 12.1826 10.6213 12.1826C9.02375 12.1826 7.42618 12.1937 5.82862 12.1715C5.49845 12.1715 5.32805 12.2823 5.20025 12.6036C4.77423 13.6783 4.30561 14.7309 3.87959 15.8056C3.41097 16.9911 2.83585 18.1433 2.46308 19.3731C2.45243 19.3953 2.44178 19.4175 2.43113 19.4507C2.46308 19.4618 2.48438 19.4507 2.50568 19.4396Z" fill="#F6D70E"/>
</svg>
