<svg width="34" height="45" viewBox="0 0 34 45" fill="none" xmlns="http://www.w3.org/2000/svg">
<path d="M29.1033 21.1315C29.1033 22.2973 29.0911 23.4508 29.1033 24.6166C29.1276 27.2673 30.174 29.3902 32.3032 30.961C32.7412 31.2801 33.1427 31.6359 33.459 32.09C34.2134 33.1576 34.1769 34.397 33.3617 35.4278C32.7047 36.2623 31.8287 36.8023 30.8918 37.244C29.1154 38.0908 27.2296 38.5571 25.3072 38.9007C24.7597 38.9989 24.2243 39.0848 23.6768 39.1584C23.47 39.1829 23.3727 39.2443 23.3362 39.4897C22.8617 42.349 20.8055 44.4229 18.0071 44.9138C14.6247 45.4905 11.291 43.1098 10.7069 39.6983C10.6218 39.2198 10.6218 39.2198 10.1351 39.1461C7.94506 38.8271 5.77935 38.3853 3.71098 37.5263C2.70113 37.109 1.72778 36.5936 0.949104 35.796C-0.328419 34.4952 -0.316254 32.8508 0.985603 31.5623C1.26544 31.2923 1.58178 31.0592 1.88595 30.826C3.88132 29.2552 4.87901 27.1814 4.90334 24.6411C4.91551 22.5304 4.90334 20.4197 4.90334 18.3213C4.90334 14.7134 6.19304 11.6455 8.78458 9.14214C9.70927 8.25859 10.7556 7.53457 11.9115 7.00689C12.1791 6.88417 12.2521 6.73692 12.2521 6.45467C12.2521 5.59566 12.167 4.72438 12.3373 3.86537C12.8118 1.41105 15.014 -0.221066 17.5204 0.024365C19.8808 0.245253 21.7423 2.31915 21.7545 4.74892C21.7545 5.32568 21.7788 5.90245 21.7545 6.47921C21.7423 6.74919 21.8396 6.8719 22.0708 6.98235C25.3194 8.55311 27.5094 11.0811 28.5923 14.5539C28.9451 15.6829 29.0911 16.8364 29.1033 18.0145C29.1033 19.0453 29.1033 20.0884 29.1033 21.1315ZM27.1809 21.7328C27.1809 20.3461 27.1931 19.2048 27.1809 18.0636C27.1444 12.7868 23.2997 8.43039 18.1409 7.85363C12.2156 7.19096 6.94738 11.8542 6.85004 17.8672C6.81354 20.1497 6.87438 22.4322 6.83788 24.7148C6.77705 27.9667 5.46302 30.5928 2.84714 32.5318C2.6403 32.679 2.44563 32.8385 2.27529 33.0349C1.83728 33.5135 1.83729 33.9062 2.28746 34.3848C2.62813 34.7529 3.05397 35.0229 3.49198 35.2683C4.53833 35.8328 5.65768 36.2132 6.81354 36.5077C9.14958 37.1213 11.5343 37.4404 13.9433 37.5754C18.0801 37.8085 22.2047 37.6367 26.2684 36.7409C27.8014 36.4096 29.2858 35.9678 30.6728 35.1947C31.0986 34.9615 31.488 34.6915 31.8165 34.3234C32.2058 33.8694 32.1937 33.5135 31.8043 33.0717C31.5853 32.814 31.3055 32.6176 31.0378 32.4213C28.7626 30.6665 27.4972 28.3471 27.2539 25.4756C27.1079 24.1503 27.2052 22.8127 27.1809 21.7328ZM16.9729 43.0485C18.9804 43.0608 20.769 41.7232 21.3043 39.7965C21.4016 39.4406 21.4016 39.4284 21.0366 39.4529C18.3356 39.6615 15.6345 39.6493 12.9457 39.4529C12.6171 39.4284 12.605 39.4406 12.6901 39.7597C13.2133 41.6741 14.9897 43.0362 16.9729 43.0485ZM14.1745 5.11707C14.1745 5.46067 14.1867 5.7061 14.1745 5.93926C14.1623 6.14788 14.2475 6.17242 14.43 6.13561C16.1577 5.75519 17.8854 5.75519 19.6131 6.13561C19.7956 6.17242 19.8443 6.12334 19.8443 5.93926C19.8321 5.48521 19.8564 5.03117 19.8321 4.58939C19.7713 3.46041 19.0169 2.45414 17.9462 2.09826C16.8026 1.71784 15.7927 1.97554 14.9532 2.84683C14.3083 3.49722 14.1137 4.33169 14.1745 5.11707Z" fill="#F6D70E"/>
</svg>
