<svg width="30" height="24" viewBox="0 0 30 24" fill="none" xmlns="http://www.w3.org/2000/svg">
<path d="M10.5063 2.44234C10.4563 2.44234 10.4062 2.44234 10.3562 2.44234C9.7559 2.29221 9.23895 2.60916 8.72201 2.77597C7.80486 3.05956 6.93774 3.50996 6.18734 4.1105C5.78713 4.42745 5.35357 4.69435 5.10344 5.17812C4.98671 5.17812 4.92 5.26153 4.83663 5.34494C3.91948 6.34583 3.20243 7.4635 2.80222 8.78134C2.55208 9.61542 2.28528 10.4328 2.30195 11.3169C2.31863 12.1343 2.30196 12.9517 2.51874 13.7858C2.70217 14.5031 2.91895 15.2204 3.2191 15.871C3.65267 16.8052 4.28634 17.6226 5.00338 18.3732C5.87051 19.274 6.87104 19.958 7.98829 20.4751C8.27178 20.6086 8.57194 20.8254 8.9388 20.7754C9.03885 20.7921 9.12222 20.7921 9.22228 20.8088C9.47241 20.9756 9.70587 21.1424 10.0227 21.059C10.1394 21.059 10.2395 21.0757 10.3562 21.0757C10.573 21.1924 10.8064 21.2091 11.0399 21.1257C11.1233 21.1257 11.19 21.1424 11.2734 21.1424C11.29 21.2258 11.3567 21.2425 11.4234 21.2425C12.0738 21.2758 12.7075 21.2091 13.3411 21.059C13.4579 21.0423 13.5579 21.0423 13.6746 21.0256C13.9414 21.1257 14.1249 20.9422 14.3083 20.8088C14.4084 20.7921 14.4917 20.7921 14.5918 20.7754C14.8419 20.8588 15.0087 20.7253 15.1421 20.5418C15.1754 20.5252 15.2254 20.5252 15.2588 20.5085C15.659 20.6419 15.9258 20.3083 16.226 20.1582C17.0931 19.7244 17.8101 19.0739 18.5439 18.4567C19.0441 18.0396 19.5444 17.9896 20.0947 18.49C20.595 18.9404 20.6116 19.5743 20.1781 20.0581C19.4443 20.8588 18.5605 21.476 17.6267 22.0098C16.9263 22.4102 16.176 22.7438 15.3922 22.9607C14.5584 23.1942 13.7413 23.4444 12.8575 23.4611C12.0404 23.4778 11.2233 23.4778 10.4062 23.4945C10.3229 23.4945 10.2562 23.4945 10.1728 23.4945C9.22228 23.1942 8.20508 23.0608 7.27125 22.6437C6.6209 22.3601 5.97056 22.0599 5.40359 21.6762C4.33636 20.9756 3.36918 20.1582 2.56876 19.1239C2.01847 18.4066 1.48485 17.6393 1.13467 16.8052C0.851185 16.1546 0.601056 15.504 0.434301 14.8034C0.21752 13.8859 0.0174133 12.9684 0.000737823 12.0342C-0.0159377 10.5663 0.250868 9.14833 0.717781 7.74708C1.03462 6.8296 1.4515 5.97884 1.98512 5.1948C2.61879 4.24395 3.35251 3.35983 4.26966 2.6592C4.97003 2.12539 5.68708 1.59158 6.4875 1.20791C7.07114 0.92432 7.67146 0.690778 8.30513 0.490599C8.90544 0.307102 9.53911 0.106923 10.1394 0.0735597C11.5068 0.00683339 12.8909 -0.109938 14.275 0.240375C15.3589 0.507281 16.3761 0.874276 17.3599 1.37472C18.3938 1.90853 19.3109 2.55911 20.1114 3.39319C20.695 3.99373 20.695 4.77776 19.7278 5.24485C19.5277 5.34494 19.3443 5.47839 19.1108 5.36162C18.7607 5.1948 18.4438 5.0113 18.1603 4.72772C17.2932 3.91032 16.3094 3.27642 15.1754 2.85938C14.8086 2.72593 14.425 2.70925 14.0915 2.52575C13.8247 2.37562 13.5412 2.35893 13.2577 2.40898C13.1577 2.40898 13.041 2.40898 12.9409 2.3923C12.1071 2.22548 11.3067 2.25885 10.5063 2.44234Z" fill="#F6D70E"/>
<path d="M17.5767 10.6997C19.4444 10.6997 21.3121 10.6997 23.1964 10.6997C23.7133 10.6997 23.7967 10.6163 23.7967 10.0991C23.7967 9.56533 23.7967 9.01484 23.7967 8.48103C23.7967 8.39762 23.7633 8.29753 23.8634 8.26417C23.9635 8.21412 24.0302 8.28085 24.1302 8.3309C24.8306 8.76462 25.5476 9.18166 26.248 9.59869C27.0151 10.0491 27.7988 10.4661 28.5659 10.9499C28.9661 11.2001 29.3997 11.4003 29.8166 11.6172C29.8999 11.6672 30 11.7006 30 11.8173C30 11.9174 29.9166 11.9341 29.8332 11.9842C29.0495 12.4179 28.2991 12.8683 27.5153 13.3187C26.9484 13.6356 26.3814 13.9526 25.8311 14.2695C25.2641 14.6032 24.6471 14.8701 24.1302 15.3038C24.0635 15.3538 23.9968 15.4039 23.8968 15.3705C23.7634 15.3372 23.7967 15.2204 23.7967 15.1203C23.7967 14.5698 23.8134 14.0193 23.7967 13.4521C23.7967 12.9851 23.68 12.885 23.2297 12.885C19.4944 12.885 15.7758 12.885 12.0405 12.9016C11.5402 12.9016 11.1567 12.7515 10.9232 12.2844C10.7231 11.8841 10.9066 11.2168 11.2567 10.8832C11.4735 10.683 11.7403 10.7164 12.0071 10.7164C13.8581 10.683 15.7258 10.6997 17.5767 10.6997Z" fill="#F6D70E"/>
</svg>
